<svg xmlns="http://www.w3.org/2000/svg" viewBox="0 0 25 25.26"><defs><style>.cls-1{fill:none;stroke:#999;stroke-miterlimit:10;stroke-width:0.75px;}.cls-2{fill:#999;}</style></defs><title>Asset 5</title><g id="Layer_2" data-name="Layer 2"><g id="Layer_7" data-name="Layer 7"><ellipse class="cls-1" cx="12.5" cy="12.63" rx="12.13" ry="12.26"/><path class="cls-2" d="M7.53,8.16H8.62A.35.35,0,0,0,9,7.81a.34.34,0,0,0-.34-.34H7.53a.34.34,0,0,0-.34.34A.35.35,0,0,0,7.53,8.16Z"/><path class="cls-2" d="M7.53,9.77H8.62A.34.34,0,0,0,9,9.43a.35.35,0,0,0-.34-.35H7.53a.35.35,0,0,0-.34.35A.34.34,0,0,0,7.53,9.77Z"/><path class="cls-2" d="M7.53,11.39H8.62A.34.34,0,0,0,9,11.05a.35.35,0,0,0-.34-.35H7.53a.35.35,0,0,0-.34.35A.34.34,0,0,0,7.53,11.39Z"/><path class="cls-2" d="M7.53,13H8.62a.35.35,0,0,0,0-.69H7.53a.35.35,0,0,0,0,.69Z"/><path class="cls-2" d="M7.53,14.63H8.62A.35.35,0,0,0,9,14.28a.34.34,0,0,0-.34-.34H7.53a.34.34,0,0,0-.34.34A.35.35,0,0,0,7.53,14.63Z"/><path class="cls-2" d="M7.53,16.25H8.62A.35.35,0,0,0,9,15.9a.34.34,0,0,0-.34-.34H7.53a.34.34,0,0,0-.34.34A.35.35,0,0,0,7.53,16.25Z"/><path class="cls-2" d="M9,17.52a.35.35,0,0,0-.34-.35H7.53a.35.35,0,0,0-.34.35.34.34,0,0,0,.34.34H8.62A.34.34,0,0,0,9,17.52Z"/><path class="cls-2" d="M16.63,6H9.18A1.18,1.18,0,0,0,8,7.21v0h.62a.58.58,0,1,1,0,1.16H8v.46h.62a.58.58,0,1,1,0,1.16H8v.45h.62a.59.59,0,0,1,.58.59.58.58,0,0,1-.58.58H8v.45h.62a.59.59,0,0,1,0,1.17H8v.45h.62a.59.59,0,0,1,0,1.17H8v.45h.62a.58.58,0,0,1,0,1.16H8v.46h.62a.58.58,0,0,1,0,1.16H8a1.17,1.17,0,0,0,1.17,1.14h7.45a1.18,1.18,0,0,0,1.18-1.19V7.21A1.18,1.18,0,0,0,16.63,6ZM14.17,7.84h0l0-.07v0l0,0s0,0,0,0l0,0,0,0,.05,0,0,0,.05,0h0l-.71,2.68h0s0,0,0,0h0l0,0c-.2-.34.49-2.29.49-2.3Zm-3.33,9.57,0-.05a0,0,0,0,1,0,0,.08.08,0,0,1,0,0s0,0,0,0a.13.13,0,0,0,0-.06v0a.17.17,0,0,1,0-.07v0a.24.24,0,0,1,0-.08h0s.75-1.93,1.12-2.06l.06,0H12l-1.2,2.49Zm4.7-6.36v0s0,.1,0,.15,0,.06,0,.09a.57.57,0,0,0,0,.14.49.49,0,0,0,0,.11.74.74,0,0,1,0,.14s0,.08,0,.13,0,.09,0,.14a.58.58,0,0,0,0,.14l-.05.14-.06.17a.93.93,0,0,1,0,.13l-.09.26,0,0c0,.05,0,.1-.05.16s-.05.13-.08.2l0,0h0a449546480175.88,449546480175.88,0,0,1,0,.06h0l0,0c0,.07,0,.14-.07.21l-.06.16s0,0,0,0-.07.18-.1.26,0,.09,0,.13-.05.11-.07.17,0,.09-.05.13l-.06.14-.06.14a.61.61,0,0,1-.05.12l-.06.13s0,.07,0,.11l-.06.13a.36.36,0,0,0,0,.09l-.07.14v0a8.1,8.1,0,0,1-1.35,2.33h0a.91.91,0,0,1-.81,0l-.69-.26-.08,0L12.21,15h0l0,0h0l0,0h0l0,0h0l0,0h0l0,0h0l0,0h0l0,0,0,0h0l0,0h0l0,0h0l0,0h0l0,0h0l0,0h.19l0,0h0l0,0h0l0,0h0l0,0h0l0,0v0l0,0h0l.05-.07a4.39,4.39,0,0,0,.47-1c.09-.24.19-.5.29-.78L14,13c0-.1.07-.19.11-.28l.29-.79a4.7,4.7,0,0,0,.27-1v-.29h0s0,0,0,0v-.05h0v0h0l0,0h0l0,0h0v0h0l0,0h-.6l.74-2.77a.32.32,0,0,1,.09,0l.7.26a.77.77,0,0,1,.41.55h0S16.13,9,15.54,11.05Z"/></g></g></svg>