<svg xmlns="http://www.w3.org/2000/svg" viewBox="0 0 25 25.26"><defs><style>.cls-1{fill:none;stroke:#999;stroke-miterlimit:10;stroke-width:0.75px;}.cls-2{fill:#999;}</style></defs><title>Asset 3</title><g id="Layer_2" data-name="Layer 2"><g id="Layer_7" data-name="Layer 7"><ellipse class="cls-1" cx="12.5" cy="12.63" rx="12.13" ry="12.26"/><polygon class="cls-2" points="17.03 16.73 17.03 16.9 14.76 16.9 14.76 18.74 14.68 18.74 7.97 18.74 7.97 6.52 17.03 6.52 17.03 14.44 17.42 14.16 17.42 6.12 7.58 6.12 7.58 19.14 15.15 19.14 17.42 17.3 17.42 14.16 17.03 14.41 17.03 16.73"/><rect class="cls-2" x="9.14" y="8.37" width="6.73" height="0.25"/><rect class="cls-2" x="9.14" y="9.71" width="6.73" height="0.25"/><rect class="cls-2" x="9.14" y="11.29" width="6.73" height="0.25"/><rect class="cls-2" x="9.14" y="12.54" width="6.73" height="0.25"/><rect class="cls-2" x="9.14" y="13.89" width="6.73" height="0.25"/><rect class="cls-2" x="9.14" y="15.46" width="6.73" height="0.25"/></g></g></svg>