<svg xmlns="http://www.w3.org/2000/svg" viewBox="0 0 87.73 28.84"><defs><style>.cls-1{fill:#7acede;}.cls-2{fill:#3488a0;}</style></defs><title>Asset 1</title><g id="Layer_2" data-name="Layer 2"><g id="Layer_1-2" data-name="Layer 1"><polygon class="cls-1" points="8.72 28.61 5.3 28.61 5.3 19.12 8.72 17.35 8.72 28.61"/><polygon class="cls-1" points="15.45 28.61 12.03 28.61 12.03 15.36 15.45 13.57 15.45 28.61"/><polygon class="cls-1" points="22.3 28.61 18.88 28.61 18.88 11.59 22.3 9.68 22.3 28.61"/><polygon class="cls-2" points="29.09 25.72 29.09 6 25.67 7.87 25.67 25.72 25.67 25.72 25.67 28.61 39.97 28.61 39.97 25.72 29.09 25.72"/><rect class="cls-2" x="43.09" y="10.95" width="3.42" height="17.66"/><rect class="cls-2" x="76.28" y="3.65" width="3.42" height="24.95"/><rect class="cls-2" x="68.14" y="3.54" width="19.6" height="3.01"/><polygon class="cls-2" points="0 17.98 0.75 19.14 32.26 1.56 36.6 8.41 42.77 5.07 44.21 7.58 47.84 1.76 40.99 1.56 42.32 3.99 37.08 6.89 32.7 0 0 17.98"/><path class="cls-2" d="M49.59,25.4l1.88-2.16a8.23,8.23,0,0,0,6.26,2.84C61,26.08,62.9,24,62.9,21.6s-1.79-3.11-4.13-4.13l-3.55-1.34c-2.31-1-4.44-2.5-4.44-6.14s3.29-6.57,7.79-6.57a10.21,10.21,0,0,1,7.28,3.06l-1.67,2a7.9,7.9,0,0,0-5.61-2.32C55.79,6.19,54,7.59,54,9.8c0,2.38,1.59,3,3.53,3.87L61,15c2.86,1.23,5.1,2.7,5.1,6.38,0,3.91-3.24,7.49-8.44,7.49A10.43,10.43,0,0,1,49.59,25.4Z"/></g></g></svg>