<?xml version="1.0" standalone="no"?>
<!DOCTYPE svg PUBLIC "-//W3C//DTD SVG 20010904//EN"
 "http://www.w3.org/TR/2001/REC-SVG-20010904/DTD/svg10.dtd">
<svg version="1.0" xmlns="http://www.w3.org/2000/svg"
 width="91.000000pt" height="60.000000pt" viewBox="0 0 91.000000 60.000000"
 preserveAspectRatio="xMidYMid meet">
<metadata>
Created by potrace 1.15, written by Peter Selinger 2001-2017
</metadata>
<g transform="translate(0.000000,60.000000) scale(0.100000,-0.100000)"
fill="#000000" stroke="none">
<path d="M497 496 c-37 -33 -67 -66 -67 -71 0 -6 32 -42 70 -80 l70 -69 0 51
0 52 133 3 132 3 3 38 3 37 -135 0 -135 0 -3 49 -3 49 -68 -62z"/>
<path d="M350 293 l0 -52 -132 -3 -133 -3 -3 -37 -3 -38 135 0 136 0 0 -52 0
-51 68 64 c37 35 68 69 70 74 1 6 -29 41 -68 80 l-70 69 0 -51z"/>
</g>
</svg>
