<svg xmlns="http://www.w3.org/2000/svg" viewBox="0 0 25 25.26"><defs><style>.cls-1{fill:none;stroke:#999;stroke-miterlimit:10;stroke-width:0.75px;}.cls-2{fill:#999;}</style></defs><title>Asset 4</title><g id="Layer_2" data-name="Layer 2"><g id="Layer_7" data-name="Layer 7"><ellipse class="cls-1" cx="12.5" cy="12.63" rx="12.13" ry="12.26"/><path class="cls-2" d="M16,11.65a1.27,1.27,0,1,0-1.25-1.27A1.27,1.27,0,0,0,16,11.65Z"/><path class="cls-2" d="M8,14.34l1.19-1.63a3.52,3.52,0,0,1,.41-.36,1.17,1.17,0,0,0-.23.49s0,.05,0,0a1.7,1.7,0,0,0,.36-.35c0-.07.24-.38.17,0a.92.92,0,0,0,0,.29s0,0,.05,0a.57.57,0,0,0,.24-.31c.07-.15.08-.34.14-.06a1.1,1.1,0,0,0,.12.33s0,0,0,0a2,2,0,0,0,.1-.4,1.93,1.93,0,0,0,.22.38s0,0,.05,0c.07-.2,0-.59.31-.31l.08.05.66.92a.53.53,0,0,0,.06-.13.44.44,0,0,1,.13-.22l-.91-1.25.44-.6.08,0c.34-.28.24.11.31.31,0,0,0,0,0,0a1.84,1.84,0,0,0,.21-.38,2.92,2.92,0,0,0,.1.4s.05,0,.06,0a1.06,1.06,0,0,0,.12-.34c.06-.27.07-.08.14.07a.5.5,0,0,0,.24.31s0,0,0,0a1.43,1.43,0,0,0,0-.29c-.07-.35.11,0,.17,0a1.5,1.5,0,0,0,.36.35s.05,0,.05,0a1.08,1.08,0,0,0-.24-.49,4.71,4.71,0,0,1,.42.36l2.19,3c.14,0,.26,0,.3-.08l0-.05L13,9.77a.52.52,0,0,0-.7,0L11,11.5l-.32-.45a.53.53,0,0,0-.71,0L7.68,14.21l0,0C7.76,14.34,7.89,14.36,8,14.34ZM12.54,10a.11.11,0,0,1,.09,0,.1.1,0,0,1,.09,0l.87,1.19a1.8,1.8,0,0,0-.34-.26s-.05,0,0,0,.32.61.09.31a2.51,2.51,0,0,0-.36-.37s0,0,0,0a.68.68,0,0,0,0,.14c.06.11,0,.17-.08.19a2.59,2.59,0,0,0-.17-.38,0,0,0,0,0-.05,0,2.92,2.92,0,0,0-.1.35c-.07.25-.16-.28-.17-.33a0,0,0,0,0,0,0,1.11,1.11,0,0,0-.12.27c-.08.21-.11-.26-.11-.25a0,0,0,0,0,0,0,.82.82,0,0,0-.25.12ZM10.25,11.3a.12.12,0,0,1,.09,0,.13.13,0,0,1,.1,0L11,12a.59.59,0,0,0,0,.08h0l.15.2a.82.82,0,0,0-.25-.11,0,0,0,0,0,0,0s0,.45-.11.25a1.09,1.09,0,0,0-.11-.27s0,0,0,0-.1.58-.18.33a1.79,1.79,0,0,0-.1-.35s0,0,0,0-.11.25-.17.38c-.11,0-.14-.08-.07-.19a.66.66,0,0,0,0-.14s0,0,0,0a2,2,0,0,0-.35.36c-.24.29,0-.23.08-.31a0,0,0,0,0,0,0,2.78,2.78,0,0,0-.34.26Z"/><path class="cls-2" d="M18.28,8.13H6.74a.24.24,0,0,0-.25.24v8.51a.25.25,0,0,0,.25.25H18.28a.24.24,0,0,0,.23-.25V8.37A.23.23,0,0,0,18.28,8.13Zm-.36,6.49v1.61a.24.24,0,0,1-.24.24H7.32a.24.24,0,0,1-.24-.24V9a.24.24,0,0,1,.24-.24H17.68a.24.24,0,0,1,.24.24Z"/><path class="cls-2" d="M17,14c-.51.16-1.43,1.18-1.49.89s-.55-.45-.63-.42,0-.43-.29-.22-.55.2-.65-.14-.92.05-1.12-.3-.4-.64-.58-.51a.39.39,0,0,0-.13.22.48.48,0,0,1-.06.14c-.16.25-.39-.35-.48.2s-.36.92-1.28,1S9.08,14.66,9,14.43s-.28-.09-.44.05a.9.9,0,0,1-.46.17c-.14,0-.27,0-.31-.09l0-.05a2,2,0,0,0-.5-.31v1.92a.23.23,0,0,0,.23.24H17.57a.23.23,0,0,0,.23-.24V14.58C17.66,14.3,17.36,13.88,17,14Z"/></g></g></svg>